<mxfile host="app.diagrams.net" modified="2022-05-04T10:37:02.395Z" agent="5.0 (Windows NT 10.0; Win64; x64) AppleWebKit/537.36 (KHTML, like Gecko) Chrome/101.0.4951.41 Safari/537.36 Edg/101.0.1210.32" etag="WxwQgIaLHQ_CiJIoa4jA" version="17.5.0" type="github">
  <diagram id="3mJoSiwfKMlHB8BGK-X2" name="Page-1">
    <mxGraphModel dx="1038" dy="579" grid="1" gridSize="10" guides="1" tooltips="1" connect="1" arrows="1" fold="1" page="1" pageScale="1" pageWidth="850" pageHeight="1100" math="0" shadow="0">
      <root>
        <mxCell id="0" />
        <mxCell id="1" parent="0" />
        <mxCell id="wmb7PbX4e0VZws-wOhhi-3" value="" style="edgeStyle=orthogonalEdgeStyle;rounded=0;orthogonalLoop=1;jettySize=auto;html=1;" edge="1" parent="1" source="wmb7PbX4e0VZws-wOhhi-1" target="wmb7PbX4e0VZws-wOhhi-2">
          <mxGeometry relative="1" as="geometry" />
        </mxCell>
        <mxCell id="wmb7PbX4e0VZws-wOhhi-1" value="start" style="rounded=1;whiteSpace=wrap;html=1;" vertex="1" parent="1">
          <mxGeometry x="80" y="30" width="90" height="20" as="geometry" />
        </mxCell>
        <mxCell id="wmb7PbX4e0VZws-wOhhi-5" value="yes" style="edgeStyle=orthogonalEdgeStyle;rounded=0;orthogonalLoop=1;jettySize=auto;html=1;" edge="1" parent="1" source="wmb7PbX4e0VZws-wOhhi-2" target="wmb7PbX4e0VZws-wOhhi-4">
          <mxGeometry relative="1" as="geometry" />
        </mxCell>
        <mxCell id="wmb7PbX4e0VZws-wOhhi-20" value="" style="edgeStyle=orthogonalEdgeStyle;rounded=0;orthogonalLoop=1;jettySize=auto;html=1;" edge="1" parent="1" source="wmb7PbX4e0VZws-wOhhi-2" target="wmb7PbX4e0VZws-wOhhi-19">
          <mxGeometry relative="1" as="geometry">
            <Array as="points">
              <mxPoint x="190" y="130" />
              <mxPoint x="190" y="20" />
              <mxPoint x="450" y="20" />
            </Array>
          </mxGeometry>
        </mxCell>
        <mxCell id="wmb7PbX4e0VZws-wOhhi-21" value="no" style="edgeLabel;html=1;align=center;verticalAlign=middle;resizable=0;points=[];" vertex="1" connectable="0" parent="wmb7PbX4e0VZws-wOhhi-20">
          <mxGeometry x="-0.5624" y="-2" relative="1" as="geometry">
            <mxPoint as="offset" />
          </mxGeometry>
        </mxCell>
        <mxCell id="wmb7PbX4e0VZws-wOhhi-2" value="IF npc type not attack npc&amp;nbsp;" style="rhombus;whiteSpace=wrap;html=1;" vertex="1" parent="1">
          <mxGeometry x="85" y="90" width="80" height="80" as="geometry" />
        </mxCell>
        <mxCell id="wmb7PbX4e0VZws-wOhhi-7" value="" style="edgeStyle=orthogonalEdgeStyle;rounded=0;orthogonalLoop=1;jettySize=auto;html=1;" edge="1" parent="1" source="wmb7PbX4e0VZws-wOhhi-4" target="wmb7PbX4e0VZws-wOhhi-6">
          <mxGeometry relative="1" as="geometry" />
        </mxCell>
        <mxCell id="wmb7PbX4e0VZws-wOhhi-4" value="set agent max speed&amp;nbsp; 0&amp;nbsp;" style="rounded=1;whiteSpace=wrap;html=1;fillColor=#ffcc99;strokeColor=#36393d;" vertex="1" parent="1">
          <mxGeometry x="65" y="200" width="120" height="60" as="geometry" />
        </mxCell>
        <mxCell id="wmb7PbX4e0VZws-wOhhi-9" value="" style="edgeStyle=orthogonalEdgeStyle;rounded=0;orthogonalLoop=1;jettySize=auto;html=1;" edge="1" parent="1" source="wmb7PbX4e0VZws-wOhhi-6" target="wmb7PbX4e0VZws-wOhhi-8">
          <mxGeometry relative="1" as="geometry" />
        </mxCell>
        <mxCell id="wmb7PbX4e0VZws-wOhhi-6" value="set agent position out of arena" style="rounded=1;whiteSpace=wrap;html=1;fillColor=#ffcc99;strokeColor=#36393d;" vertex="1" parent="1">
          <mxGeometry x="65" y="290" width="120" height="60" as="geometry" />
        </mxCell>
        <mxCell id="wmb7PbX4e0VZws-wOhhi-11" value="yes" style="edgeStyle=orthogonalEdgeStyle;rounded=0;orthogonalLoop=1;jettySize=auto;html=1;" edge="1" parent="1" source="wmb7PbX4e0VZws-wOhhi-8" target="wmb7PbX4e0VZws-wOhhi-10">
          <mxGeometry relative="1" as="geometry" />
        </mxCell>
        <mxCell id="wmb7PbX4e0VZws-wOhhi-15" value="" style="edgeStyle=orthogonalEdgeStyle;rounded=0;orthogonalLoop=1;jettySize=auto;html=1;" edge="1" parent="1" source="wmb7PbX4e0VZws-wOhhi-8" target="wmb7PbX4e0VZws-wOhhi-14">
          <mxGeometry relative="1" as="geometry">
            <Array as="points">
              <mxPoint x="220" y="430" />
              <mxPoint x="220" y="70" />
            </Array>
          </mxGeometry>
        </mxCell>
        <mxCell id="wmb7PbX4e0VZws-wOhhi-16" value="no" style="edgeLabel;html=1;align=center;verticalAlign=middle;resizable=0;points=[];" vertex="1" connectable="0" parent="wmb7PbX4e0VZws-wOhhi-15">
          <mxGeometry x="-0.8262" y="-2" relative="1" as="geometry">
            <mxPoint as="offset" />
          </mxGeometry>
        </mxCell>
        <mxCell id="wmb7PbX4e0VZws-wOhhi-8" value="IF npc type is stock" style="rhombus;whiteSpace=wrap;html=1;" vertex="1" parent="1">
          <mxGeometry x="85" y="390" width="80" height="80" as="geometry" />
        </mxCell>
        <mxCell id="wmb7PbX4e0VZws-wOhhi-13" value="" style="edgeStyle=orthogonalEdgeStyle;rounded=0;orthogonalLoop=1;jettySize=auto;html=1;" edge="1" parent="1" source="wmb7PbX4e0VZws-wOhhi-10" target="wmb7PbX4e0VZws-wOhhi-12">
          <mxGeometry relative="1" as="geometry" />
        </mxCell>
        <mxCell id="wmb7PbX4e0VZws-wOhhi-10" value="get the stock tower id" style="whiteSpace=wrap;html=1;" vertex="1" parent="1">
          <mxGeometry x="65" y="500" width="120" height="60" as="geometry" />
        </mxCell>
        <mxCell id="wmb7PbX4e0VZws-wOhhi-12" value="call&amp;nbsp;refillStock" style="rounded=1;whiteSpace=wrap;html=1;fillColor=#f8cecc;gradientColor=#ea6b66;strokeColor=#b85450;" vertex="1" parent="1">
          <mxGeometry x="65" y="600" width="120" height="60" as="geometry" />
        </mxCell>
        <mxCell id="wmb7PbX4e0VZws-wOhhi-18" value="" style="edgeStyle=orthogonalEdgeStyle;rounded=0;orthogonalLoop=1;jettySize=auto;html=1;" edge="1" parent="1" source="wmb7PbX4e0VZws-wOhhi-14" target="wmb7PbX4e0VZws-wOhhi-17">
          <mxGeometry relative="1" as="geometry" />
        </mxCell>
        <mxCell id="wmb7PbX4e0VZws-wOhhi-14" value="ELSE IF npc type&amp;nbsp;mechMan" style="rhombus;whiteSpace=wrap;html=1;" vertex="1" parent="1">
          <mxGeometry x="240" y="30" width="80" height="80" as="geometry" />
        </mxCell>
        <mxCell id="wmb7PbX4e0VZws-wOhhi-17" value="call&amp;nbsp;refillStock" style="rounded=1;whiteSpace=wrap;html=1;fillColor=#f8cecc;gradientColor=#ea6b66;strokeColor=#b85450;" vertex="1" parent="1">
          <mxGeometry x="230" y="140" width="120" height="60" as="geometry" />
        </mxCell>
        <mxCell id="wmb7PbX4e0VZws-wOhhi-23" value="" style="edgeStyle=orthogonalEdgeStyle;rounded=0;orthogonalLoop=1;jettySize=auto;html=1;" edge="1" parent="1" source="wmb7PbX4e0VZws-wOhhi-19" target="wmb7PbX4e0VZws-wOhhi-22">
          <mxGeometry relative="1" as="geometry" />
        </mxCell>
        <mxCell id="wmb7PbX4e0VZws-wOhhi-19" value="ELSE IF npc type&amp;nbsp;&amp;nbsp;attackNpc" style="rhombus;whiteSpace=wrap;html=1;" vertex="1" parent="1">
          <mxGeometry x="410" y="40" width="80" height="80" as="geometry" />
        </mxCell>
        <mxCell id="wmb7PbX4e0VZws-wOhhi-26" value="" style="edgeStyle=orthogonalEdgeStyle;rounded=0;orthogonalLoop=1;jettySize=auto;html=1;fontSize=9;" edge="1" parent="1" source="wmb7PbX4e0VZws-wOhhi-22" target="wmb7PbX4e0VZws-wOhhi-24">
          <mxGeometry relative="1" as="geometry" />
        </mxCell>
        <mxCell id="wmb7PbX4e0VZws-wOhhi-22" value="&lt;font style=&quot;font-size: 9px&quot;&gt;IF locked &lt;br&gt;sight and attack rng target &lt;br&gt;empty&lt;/font&gt;" style="rhombus;whiteSpace=wrap;html=1;" vertex="1" parent="1">
          <mxGeometry x="410" y="160" width="80" height="80" as="geometry" />
        </mxCell>
        <mxCell id="wmb7PbX4e0VZws-wOhhi-27" value="" style="edgeStyle=orthogonalEdgeStyle;rounded=0;orthogonalLoop=1;jettySize=auto;html=1;fontSize=9;" edge="1" parent="1" source="wmb7PbX4e0VZws-wOhhi-24" target="wmb7PbX4e0VZws-wOhhi-25">
          <mxGeometry relative="1" as="geometry" />
        </mxCell>
        <mxCell id="wmb7PbX4e0VZws-wOhhi-24" value="set agent max speed&amp;nbsp; 0&amp;nbsp;" style="rounded=1;whiteSpace=wrap;html=1;fillColor=#ffcc99;strokeColor=#36393d;" vertex="1" parent="1">
          <mxGeometry x="390" y="270" width="120" height="60" as="geometry" />
        </mxCell>
        <mxCell id="wmb7PbX4e0VZws-wOhhi-29" value="" style="edgeStyle=orthogonalEdgeStyle;rounded=0;orthogonalLoop=1;jettySize=auto;html=1;fontSize=9;" edge="1" parent="1" source="wmb7PbX4e0VZws-wOhhi-25" target="wmb7PbX4e0VZws-wOhhi-28">
          <mxGeometry relative="1" as="geometry" />
        </mxCell>
        <mxCell id="wmb7PbX4e0VZws-wOhhi-25" value="set agent position out of arena" style="rounded=1;whiteSpace=wrap;html=1;fillColor=#ffcc99;strokeColor=#36393d;" vertex="1" parent="1">
          <mxGeometry x="390" y="360" width="120" height="60" as="geometry" />
        </mxCell>
        <mxCell id="wmb7PbX4e0VZws-wOhhi-31" value="" style="edgeStyle=orthogonalEdgeStyle;rounded=0;orthogonalLoop=1;jettySize=auto;html=1;fontSize=9;" edge="1" parent="1" source="wmb7PbX4e0VZws-wOhhi-28" target="wmb7PbX4e0VZws-wOhhi-30">
          <mxGeometry relative="1" as="geometry" />
        </mxCell>
        <mxCell id="wmb7PbX4e0VZws-wOhhi-28" value="&lt;font style=&quot;font-size: 12px&quot;&gt;set npc as rest agent&lt;/font&gt;" style="rounded=0;whiteSpace=wrap;html=1;fontSize=9;" vertex="1" parent="1">
          <mxGeometry x="390" y="450" width="120" height="60" as="geometry" />
        </mxCell>
        <mxCell id="wmb7PbX4e0VZws-wOhhi-30" value="&lt;font style=&quot;font-size: 12px&quot;&gt;end&lt;/font&gt;" style="ellipse;whiteSpace=wrap;html=1;fontSize=9;rounded=0;" vertex="1" parent="1">
          <mxGeometry x="390" y="550" width="120" height="60" as="geometry" />
        </mxCell>
      </root>
    </mxGraphModel>
  </diagram>
</mxfile>
